<svg width="40" height="40" viewBox="0 0 40 40" fill="none" xmlns="http://www.w3.org/2000/svg">
<path d="M19.7916 33.3334C19.9027 33.3334 20.0138 33.3056 20.1249 33.25C20.236 33.1945 20.3194 33.1389 20.3749 33.0834L34.0416 19.4167C34.3749 19.0834 34.6183 18.7084 34.7716 18.2917C34.9249 17.875 35.001 17.4584 34.9999 17.0417C34.9999 16.5973 34.9238 16.1734 34.7716 15.77C34.6194 15.3667 34.376 15.0128 34.0416 14.7084L26.9583 7.62504C26.6527 7.29171 26.2983 7.04893 25.8949 6.89671C25.4916 6.74449 25.0688 6.66782 24.6266 6.66671C24.2099 6.66671 23.7933 6.74337 23.3766 6.89671C22.9599 7.05004 22.5849 7.29282 22.2516 7.62504L21.7933 8.08337L24.8766 11.2084C25.2933 11.5973 25.5988 12.0417 25.7933 12.5417C25.9877 13.0417 26.0849 13.5695 26.0849 14.125C26.0849 15.2917 25.6894 16.2712 24.8983 17.0634C24.1071 17.8556 23.1277 18.2512 21.9599 18.25C21.4044 18.25 20.8699 18.1528 20.3566 17.9584C19.8433 17.7639 19.3916 17.4723 19.0016 17.0834L15.8749 14L8.58326 21.2917C8.49992 21.375 8.4377 21.4656 8.39659 21.5634C8.35548 21.6612 8.33437 21.765 8.33326 21.875C8.33326 22.0973 8.41659 22.2989 8.58326 22.48C8.74992 22.6612 8.94437 22.7512 9.16659 22.75C9.2777 22.75 9.38881 22.7223 9.49992 22.6667C9.61103 22.6112 9.69437 22.5556 9.74992 22.5L14.2499 18C14.5555 17.6945 14.9377 17.5345 15.3966 17.52C15.8555 17.5056 16.251 17.6656 16.5833 18C16.8888 18.3056 17.0416 18.6945 17.0416 19.1667C17.0416 19.6389 16.8888 20.0278 16.5833 20.3334L12.1249 24.8334C12.0416 24.9167 11.9794 25.0073 11.9383 25.105C11.8971 25.2028 11.876 25.3067 11.8749 25.4167C11.8749 25.6389 11.9583 25.8334 12.1249 26C12.2916 26.1667 12.486 26.25 12.7083 26.25C12.8194 26.25 12.9305 26.2223 13.0416 26.1667C13.1527 26.1112 13.236 26.0556 13.2916 26L17.7916 21.5417C18.0971 21.2362 18.4794 21.0762 18.9383 21.0617C19.3971 21.0473 19.7927 21.2073 20.1249 21.5417C20.4305 21.8473 20.5833 22.2362 20.5833 22.7084C20.5833 23.1806 20.4305 23.5695 20.1249 23.875L15.6666 28.375C15.5833 28.4306 15.521 28.5139 15.4799 28.625C15.4388 28.7362 15.4177 28.8473 15.4166 28.9584C15.4166 29.1806 15.4999 29.375 15.6666 29.5417C15.8333 29.7084 16.0277 29.7917 16.2499 29.7917C16.361 29.7917 16.4655 29.7706 16.5633 29.7284C16.661 29.6862 16.751 29.6239 16.8333 29.5417L21.3333 25.0834C21.6388 24.7778 22.021 24.6178 22.4799 24.6034C22.9388 24.5889 23.3344 24.7489 23.6666 25.0834C23.9721 25.3889 24.1249 25.7778 24.1249 26.25C24.1249 26.7223 23.9721 27.1112 23.6666 27.4167L19.1666 31.9167C19.0833 32 19.021 32.0906 18.9799 32.1884C18.9388 32.2862 18.9177 32.39 18.9166 32.5C18.9166 32.7223 19.0071 32.9167 19.1883 33.0834C19.3694 33.25 19.5705 33.3334 19.7916 33.3334ZM19.7499 36.6667C18.7221 36.6667 17.8127 36.3267 17.0216 35.6467C16.2305 34.9667 15.7649 34.1123 15.6249 33.0834C14.6805 32.9445 13.8888 32.5556 13.2499 31.9167C12.611 31.2778 12.2221 30.4862 12.0833 29.5417C11.1388 29.4028 10.3544 29.0073 9.72992 28.355C9.10548 27.7028 8.72326 26.9178 8.58326 26C7.5277 25.8612 6.66659 25.4028 5.99992 24.625C5.33326 23.8473 4.99992 22.9306 4.99992 21.875C4.99992 21.3195 5.10437 20.785 5.31326 20.2717C5.52215 19.7584 5.82048 19.3067 6.20826 18.9167L13.4999 11.625C14.1388 10.9862 14.9238 10.6667 15.8549 10.6667C16.786 10.6667 17.5705 10.9862 18.2083 11.625L21.3333 14.75C21.3888 14.8334 21.4721 14.8962 21.5833 14.9384C21.6944 14.9806 21.8055 15.0012 21.9166 15C22.1666 15 22.3749 14.9239 22.5416 14.7717C22.7083 14.6195 22.7916 14.4178 22.7916 14.1667C22.7916 14.0556 22.7705 13.9445 22.7283 13.8334C22.686 13.7223 22.6238 13.6389 22.5416 13.5834L16.5833 7.62504C16.2777 7.29171 15.9238 7.04893 15.5216 6.89671C15.1194 6.74449 14.6955 6.66782 14.2499 6.66671C13.8333 6.66671 13.4166 6.74337 12.9999 6.89671C12.5833 7.05004 12.2083 7.29282 11.8749 7.62504L5.99992 13.5417C5.61103 13.9306 5.33326 14.3889 5.16659 14.9167C4.99992 15.4445 4.95826 15.9723 5.04159 16.5C5.12492 16.9723 5.0277 17.3889 4.74992 17.75C4.47215 18.1112 4.09715 18.3195 3.62492 18.375C3.1527 18.4306 2.73603 18.3262 2.37492 18.0617C2.01381 17.7973 1.80548 17.4295 1.74992 16.9584C1.58326 15.9028 1.65992 14.8684 1.97992 13.855C2.29992 12.8417 2.84826 11.9456 3.62492 11.1667L9.49992 5.29171C10.1666 4.65282 10.9099 4.16671 11.7299 3.83337C12.5499 3.50004 13.3899 3.33337 14.2499 3.33337C15.1099 3.33337 15.9505 3.50004 16.7716 3.83337C17.5927 4.16671 18.3216 4.65282 18.9583 5.29171L19.4166 5.75004L19.8749 5.29171C20.5416 4.65282 21.2849 4.16671 22.1049 3.83337C22.9249 3.50004 23.7649 3.33337 24.6249 3.33337C25.4849 3.33337 26.3255 3.50004 27.1466 3.83337C27.9677 4.16671 28.6966 4.65282 29.3333 5.29171L36.3749 12.3334C37.0138 12.9723 37.4999 13.7084 37.8333 14.5417C38.1666 15.375 38.3333 16.2223 38.3333 17.0834C38.3333 17.9445 38.1666 18.785 37.8333 19.605C37.4999 20.425 37.0138 21.1539 36.3749 21.7917L22.7083 35.4167C22.3194 35.8056 21.8683 36.1112 21.3549 36.3334C20.8416 36.5556 20.3066 36.6667 19.7499 36.6667Z" fill="#F97316"/>
</svg>
