<svg width="22" height="24" viewBox="0 0 22 24" fill="none" xmlns="http://www.w3.org/2000/svg">
<path d="M18.3228 23.3233H3.67721C1.65339 23.3233 0 21.6213 0 19.538V4.46163C0 2.37829 1.65339 0.67627 3.67721 0.67627H18.3228C20.3466 0.67627 22 2.37829 22 4.46163V19.538C22 21.6306 20.3556 23.3233 18.3228 23.3233Z" fill="white"/>
<path d="M11.0045 17.8172C9.49571 17.8172 8.07723 17.2127 7.01111 16.1152C5.94499 15.0177 5.35773 13.5575 5.35773 12.0043C5.35773 10.4511 5.94499 8.9909 7.01111 7.89342C8.07723 6.79595 9.49571 6.19141 11.0045 6.19141C12.5134 6.19141 13.9319 6.79595 14.998 7.89342C16.0641 8.9909 16.6514 10.4511 16.6514 12.0043C16.6514 13.5575 16.0641 15.0177 14.998 16.1152C13.9228 17.2127 12.5134 17.8172 11.0045 17.8172ZM11.0045 7.42839C8.55608 7.42839 6.55937 9.47453 6.55937 12.0043C6.55937 14.5248 8.54705 16.5802 11.0045 16.5802C13.453 16.5802 15.4497 14.5341 15.4497 12.0043C15.4407 9.48383 13.453 7.42839 11.0045 7.42839Z" fill="black"/>
<path d="M17.752 6.00076C18.3508 6.00076 18.8362 5.50107 18.8362 4.88466C18.8362 4.26825 18.3508 3.76855 17.752 3.76855C17.1532 3.76855 16.6678 4.26825 16.6678 4.88466C16.6678 5.50107 17.1532 6.00076 17.752 6.00076Z" fill="black"/>
</svg>
