<svg width="40" height="40" viewBox="0 0 40 40" fill="none" xmlns="http://www.w3.org/2000/svg">
<rect width="40" height="40" rx="20" fill="#FFEDD5"/>
<path d="M30 24.9201V27.9201C30.0011 28.1986 29.9441 28.4743 29.8325 28.7294C29.7209 28.9846 29.5573 29.2137 29.3521 29.402C29.1468 29.5902 28.9046 29.7336 28.6407 29.8228C28.3769 29.912 28.0974 29.9452 27.82 29.9201C24.7428 29.5857 21.787 28.5342 19.19 26.8501C16.7738 25.3148 14.7253 23.2663 13.19 20.8501C11.5 18.2413 10.4482 15.2711 10.12 12.1801C10.095 11.9036 10.1279 11.6249 10.2165 11.3617C10.3051 11.0986 10.4476 10.8568 10.6348 10.6517C10.822 10.4466 11.0498 10.2828 11.3038 10.1706C11.5578 10.0584 11.8323 10.0004 12.11 10.0001H15.11C15.5953 9.99532 16.0658 10.1672 16.4338 10.4836C16.8017 10.8001 17.0421 11.2395 17.11 11.7201C17.2366 12.6802 17.4714 13.6228 17.81 14.5301C17.9445 14.888 17.9737 15.277 17.8939 15.651C17.8141 16.0249 17.6289 16.3682 17.36 16.6401L16.09 17.9101C17.5135 20.4136 19.5864 22.4865 22.09 23.9101L23.36 22.6401C23.6319 22.3712 23.9751 22.1859 24.3491 22.1062C24.7231 22.0264 25.1121 22.0556 25.47 22.1901C26.3773 22.5286 27.3199 22.7635 28.28 22.8901C28.7658 22.9586 29.2094 23.2033 29.5265 23.5776C29.8437 23.9519 30.0122 24.4297 30 24.9201Z" stroke="#F97316" stroke-width="2" stroke-linecap="round" stroke-linejoin="round"/>
</svg>
