<svg width="40" height="40" viewBox="0 0 40 40" fill="none" xmlns="http://www.w3.org/2000/svg">
<path d="M19.9999 3.33337C20.6255 3.33337 21.2421 3.36726 21.8499 3.43504C22.0675 3.45912 22.2782 3.52581 22.4699 3.63131C22.6617 3.7368 22.8309 3.87904 22.9677 4.0499C23.1045 4.22076 23.2063 4.4169 23.2673 4.62711C23.3283 4.83732 23.3473 5.05748 23.3233 5.27504C23.2992 5.4926 23.2325 5.70328 23.127 5.89506C23.0215 6.08685 22.8792 6.25597 22.7084 6.39278C22.5375 6.5296 22.3414 6.63141 22.1312 6.69243C21.921 6.75344 21.7008 6.77245 21.4833 6.74837C18.7367 6.44111 15.9625 6.99494 13.5444 8.33325C11.1263 9.67155 9.18384 11.7282 7.9857 14.2187C6.78755 16.7092 6.39292 19.5105 6.8564 22.2351C7.31989 24.9597 8.61857 27.4729 10.5728 29.4271C12.5271 31.3814 15.0403 32.6801 17.7649 33.1436C20.4895 33.607 23.2908 33.2124 25.7813 32.0143C28.2718 30.8161 30.3284 28.8737 31.6667 26.4556C33.005 24.0375 33.5588 21.2633 33.2516 18.5167C33.2275 18.2992 33.2465 18.079 33.3075 17.8688C33.3685 17.6586 33.4704 17.4624 33.6072 17.2916C33.8835 16.9465 34.2855 16.7253 34.7249 16.6767C35.1643 16.6281 35.605 16.756 35.9501 17.0323C36.1209 17.1691 36.2632 17.3382 36.3687 17.53C36.4742 17.7218 36.5408 17.9325 36.5649 18.15C36.6316 18.7578 36.6655 19.3745 36.6666 20C36.6666 29.205 29.2049 36.6667 19.9999 36.6667C10.7949 36.6667 3.33325 29.205 3.33325 20C3.33325 10.795 10.7949 3.33337 19.9999 3.33337ZM19.9466 13.1284C20.0564 13.5562 19.9919 14.0102 19.7672 14.3906C19.5425 14.7709 19.176 15.0465 18.7483 15.1567C17.573 15.4646 16.55 16.1895 15.87 17.1962C15.19 18.203 14.8995 19.4227 15.0528 20.6279C15.206 21.833 15.7925 22.9413 16.7028 23.7458C17.6131 24.5503 18.7851 24.9961 19.9999 25C21.1088 25.0005 22.1863 24.6324 23.0631 23.9535C23.9398 23.2747 24.566 22.3237 24.8433 21.25C24.9614 20.8306 25.2391 20.4742 25.6168 20.257C25.9946 20.0398 26.4424 19.9792 26.8643 20.0882C27.2861 20.1972 27.6486 20.467 27.8739 20.8399C28.0993 21.2129 28.1696 21.6592 28.0699 22.0834C27.5586 24.0433 26.3513 25.75 24.6735 26.8847C22.9957 28.0194 20.9622 28.5044 18.9529 28.2492C16.9435 27.994 15.0958 27.016 13.7549 25.4979C12.414 23.9798 11.6717 22.0255 11.6666 20C11.6663 18.1524 12.2801 16.357 13.4114 14.8962C14.5428 13.4354 16.1276 12.392 17.9166 11.93C18.1286 11.8754 18.3492 11.8631 18.566 11.8937C18.7827 11.9244 18.9913 11.9974 19.1798 12.1087C19.3683 12.22 19.5331 12.3673 19.6646 12.5423C19.7962 12.7172 19.892 12.9164 19.9466 13.1284ZM30.8399 3.54504C31.1441 3.67117 31.4042 3.8846 31.5872 4.15839C31.7702 4.43218 31.868 4.75405 31.8683 5.08337V8.13337H34.9166C35.2462 8.13344 35.5683 8.23123 35.8424 8.41437C36.1164 8.59751 36.3299 8.85778 36.4561 9.16228C36.5822 9.46678 36.6152 9.80184 36.5509 10.1251C36.4866 10.4483 36.3279 10.7453 36.0949 10.9784L30.1999 16.8667C29.8874 17.1793 29.4636 17.3549 29.0216 17.355H24.9999L21.9533 20.4034C21.6405 20.7161 21.2164 20.8918 20.7741 20.8918C20.3318 20.8918 19.9077 20.7161 19.5949 20.4034C19.2822 20.0906 19.1065 19.6665 19.1065 19.2242C19.1065 18.7819 19.2822 18.3578 19.5949 18.045L22.6433 15V10.9767C22.6433 10.5347 22.819 10.1109 23.1316 9.79837L29.0233 3.90504C29.2563 3.67182 29.5533 3.51297 29.8767 3.44859C30.2001 3.38421 30.5353 3.4172 30.8399 3.54337M28.5349 9.10504L25.9766 11.6667V14.0234H28.3333L30.8933 11.465H30.2016C29.7596 11.465 29.3356 11.2894 29.0231 10.9769C28.7105 10.6643 28.5349 10.2404 28.5349 9.79837V9.10504Z" fill="#F97316"/>
</svg>
