<svg width="40" height="40" viewBox="0 0 40 40" fill="none" xmlns="http://www.w3.org/2000/svg">
<path fill-rule="evenodd" clip-rule="evenodd" d="M29.6668 5.49496C30.4118 5.07329 30.8634 4.81996 31.2118 4.67829C31.3094 4.63566 31.4118 4.60489 31.5168 4.58663C31.535 4.58358 31.5536 4.58358 31.5718 4.58663C31.5784 4.58663 31.5884 4.58996 31.6168 4.61163C31.6958 4.67817 31.7668 4.75368 31.8284 4.83663C32.0568 5.12829 32.3184 5.56663 32.7484 6.29829L34.4968 9.27496C34.9268 10.0083 35.1818 10.4483 35.3234 10.7883C35.3901 10.9433 35.4084 11.0316 35.4151 11.0733L35.4168 11.1016V11.105L35.4151 11.1083L35.3968 11.135C35.329 11.213 35.2524 11.2829 35.1684 11.3433C34.8684 11.5683 34.4218 11.8266 33.6768 12.2483L27.4518 15.7816C26.7468 16.1816 26.3268 16.4166 26.0018 16.5483C25.9165 16.5867 25.827 16.6146 25.7351 16.6316H25.7101L25.7051 16.63L25.6901 16.6183C25.6188 16.5578 25.555 16.489 25.5001 16.4133C25.2834 16.1383 25.0368 15.7233 24.6268 15.025L22.7601 11.8466C22.3384 11.13 22.0901 10.6983 21.9501 10.3666C21.9073 10.2732 21.8771 10.1746 21.8601 10.0733V10.0683L21.8634 10.065L21.8668 10.06L21.8734 10.05C21.9362 9.97637 22.0079 9.91087 22.0868 9.85496C22.3734 9.63829 22.8034 9.38996 23.5284 8.97996L29.6668 5.49496ZM32.2084 2.16829C31.4951 1.97996 30.8484 2.12996 30.2751 2.36163C29.7534 2.57163 29.1568 2.91163 28.4984 3.28329L22.2284 6.84329C21.5934 7.20329 21.0101 7.53329 20.5734 7.86663C20.0951 8.22996 19.6401 8.70663 19.4484 9.41163L13.6484 12.7033L13.5818 12.74C12.9484 13.1016 12.3651 13.4316 11.9268 13.765C11.4484 14.1283 10.9934 14.605 10.8018 15.3116L5.09011 18.5533L5.02345 18.59C4.36678 18.9633 3.77011 19.3033 3.32345 19.6416C2.83178 20.0133 2.36845 20.4966 2.17345 21.215C1.97678 21.935 2.13345 22.585 2.37011 23.1533C2.58678 23.6683 2.93178 24.2566 3.31011 24.9033L3.38678 25.0333C3.76678 25.6783 4.11178 26.2666 4.45845 26.7083C4.83845 27.1916 5.32845 27.6416 6.04345 27.8316C6.75845 28.0216 7.40511 27.87 7.97678 27.64C8.50011 27.4283 9.09678 27.09 9.75345 26.7166L15.5118 23.45L15.5434 23.4566C16.2384 23.6433 16.8684 23.4983 17.4168 23.2766C17.4968 23.2444 17.5773 23.21 17.6584 23.1733L12.1834 36.1816C12.115 36.3337 12.0776 36.4978 12.0736 36.6645C12.0695 36.8312 12.0989 36.997 12.1599 37.1522C12.2209 37.3074 12.3123 37.4488 12.4288 37.5681C12.5453 37.6874 12.6844 37.7822 12.8381 37.8469C12.9917 37.9116 13.1568 37.9449 13.3235 37.9449C13.4903 37.9448 13.6553 37.9114 13.8089 37.8466C13.9626 37.7819 14.1017 37.687 14.2181 37.5676C14.3345 37.4483 14.4259 37.3068 14.4868 37.1516L20.0034 24.055L25.5168 37.1516C25.5777 37.3068 25.6691 37.4483 25.7855 37.5676C25.9019 37.687 26.041 37.7819 26.1946 37.8466C26.3483 37.9114 26.5133 37.9448 26.68 37.9449C26.8468 37.9449 27.0118 37.9116 27.1655 37.8469C27.3191 37.7822 27.4583 37.6874 27.5748 37.5681C27.6912 37.4488 27.7827 37.3074 27.8437 37.1522C27.9047 36.997 27.934 36.8312 27.93 36.6645C27.9259 36.4978 27.8886 36.3337 27.8201 36.1816L21.4568 21.0666L25.0318 19.0383L25.0651 19.0466C25.7601 19.2333 26.3901 19.0883 26.9384 18.8666C27.4368 18.6666 28.0051 18.3433 28.6218 17.9916L34.9784 14.385C35.6351 14.0133 36.2334 13.6733 36.6801 13.335C37.1701 12.9633 37.6334 12.48 37.8301 11.7616C38.0268 11.0416 37.8701 10.39 37.6318 9.82329C37.4151 9.30663 37.0701 8.71829 36.6918 8.07329L34.9034 5.03329L34.8651 4.96663C34.4868 4.32163 34.1418 3.73329 33.7951 3.29329C33.4134 2.80663 32.9251 2.35663 32.2084 2.16829ZM6.32345 20.7283L11.3184 17.8916C11.4951 18.2233 11.7018 18.575 11.9201 18.945L11.9584 19.0116L12.9884 20.765C13.1818 21.0916 13.3651 21.405 13.5451 21.69L8.58511 24.5066C7.84178 24.9266 7.39011 25.18 7.04011 25.3216C6.94308 25.3647 6.84125 25.396 6.73678 25.415C6.69845 25.4183 6.68678 25.415 6.68178 25.415C6.67511 25.4116 6.66345 25.41 6.63511 25.3883C6.55666 25.3217 6.48619 25.2461 6.42511 25.1633C6.19511 24.8716 5.93511 24.4333 5.50511 23.7016C5.07511 22.9683 4.81845 22.5283 4.67678 22.1883C4.63411 22.0976 4.6033 22.0018 4.58511 21.9033V21.8683L4.60345 21.8416C4.67174 21.7635 4.74893 21.6935 4.83345 21.6333C5.13178 21.4066 5.57845 21.15 6.32345 20.7283ZM19.9651 11.9933L14.8818 14.8766C14.1584 15.2883 13.7284 15.5366 13.4418 15.7533C13.3578 15.813 13.2822 15.8837 13.2168 15.9633L13.2151 15.9666V15.99C13.2336 16.085 13.2638 16.1774 13.3051 16.265C13.4434 16.5983 13.6934 17.0266 14.1151 17.745L15.1068 19.435C15.5168 20.135 15.7651 20.5483 15.9801 20.8233C16.0394 20.9041 16.1089 20.9769 16.1868 21.04L16.1901 21.0416H16.2134C16.3059 21.0248 16.396 20.9968 16.4818 20.9583C16.8068 20.8266 17.2268 20.5916 17.9318 20.1916L19.2218 19.4583L20.4784 18.7466L23.0634 17.28C22.8741 16.9742 22.6891 16.6659 22.5084 16.355L20.5668 13.0483C20.3595 12.7005 20.1589 12.3488 19.9651 11.9933Z" fill="#F97316"/>
</svg>
