<svg width="24" height="28" viewBox="0 0 24 28" fill="none" xmlns="http://www.w3.org/2000/svg">
<path d="M17.6926 1.06514L17.0225 0H12.9672V9.59324L12.9534 18.9637C12.9603 19.0333 12.9672 19.1099 12.9672 19.1795C12.9672 21.5256 11.0743 23.4401 8.73921 23.4401C6.40415 23.4401 4.51123 21.5326 4.51123 19.1795C4.51123 16.8334 6.40415 14.9189 8.73921 14.9189C9.2228 14.9189 9.69257 15.0094 10.1278 15.1626V10.4843C9.67876 10.4078 9.21589 10.366 8.73921 10.366C3.92401 10.3729 0 14.3272 0 19.1865C0 24.0457 3.92401 28 8.74611 28C13.5682 28 17.4922 24.0457 17.4922 19.1865V8.04078C19.2401 9.80209 21.4991 11.5216 24 12.0716V7.28891C21.285 6.07757 18.5838 2.49925 17.6926 1.06514Z" fill="white"/>
</svg>
