<svg width="24" height="25" viewBox="0 0 24 25" fill="none" xmlns="http://www.w3.org/2000/svg">
<path d="M23.0605 7.07599C22.4539 5.69506 21.5831 4.45525 20.4776 3.3868C19.372 2.32842 18.0903 1.4918 16.6619 0.907178C15.1845 0.302393 13.6191 0 12.0048 0C10.3904 0 8.825 0.302393 7.34764 0.907178C5.9192 1.4918 4.63752 2.31834 3.53194 3.3868C2.42637 4.45525 1.55562 5.69506 0.949021 7.07599C0.322855 8.50731 -3.05176e-05 10.0394 -3.05176e-05 11.6119C-3.05176e-05 14.3636 0.997911 17.0045 2.82749 19.1011L1.84911 24.5946L7.05413 22.2057C8.60976 22.8911 10.2632 23.2338 11.995 23.2338C13.6093 23.2338 15.1747 22.9314 16.6521 22.3266C18.0805 21.742 19.3622 20.9155 20.4678 19.847C21.5734 18.7786 22.4441 17.5388 23.0507 16.1578C23.6769 14.7265 23.9998 13.1944 23.9998 11.622C24.0095 10.0394 23.6867 8.51739 23.0605 7.07599Z" fill="white"/>
<path d="M16.8772 13.93C16.3684 13.6679 15.9966 13.5067 15.7325 13.4059C15.5661 13.3454 15.1748 13.164 15.0378 13.2748C14.6073 13.6377 14.1475 14.6658 13.6583 14.8574C12.4451 14.6154 11.32 13.7587 10.4394 12.8817C10.0481 12.4987 9.32405 11.4101 9.16751 11.1178C9.13816 10.8154 9.66646 10.4122 9.78387 10.1804C10.3905 9.47477 9.93065 9.03126 9.85238 8.73895C9.7154 8.43655 9.4806 7.89225 9.27514 7.44874C9.09903 7.15643 9.05986 6.723 8.74677 6.56172C7.41617 5.85614 6.65307 7.2673 6.33999 8.00312C4.45171 12.6902 15.8009 21.6108 18.1099 15.4621C18.2273 14.9279 18.1784 14.7263 18.0023 14.4844C17.6501 14.2324 17.2392 14.1215 16.8772 13.93Z" fill="black"/>
</svg>
